<?xml version="1.0" standalone="no"?>
<!DOCTYPE svg PUBLIC "-//W3C//DTD SVG 20010904//EN"
 "http://www.w3.org/TR/2001/REC-SVG-20010904/DTD/svg10.dtd">
<svg version="1.0" xmlns="http://www.w3.org/2000/svg"
 width="560.000000pt" height="560.000000pt" viewBox="0 0 560.000000 560.000000"
 preserveAspectRatio="xMidYMid meet">
<metadata>
Created by potrace 1.14, written by Peter Selinger 2001-2017
</metadata>
<g transform="translate(0.000000,560.000000) scale(0.100000,-0.100000)"
fill="#000000" stroke="none">
<path d="M2614 5163 c-4 -10 -7 -21 -6 -25 1 -4 -12 -20 -28 -37 -27 -26 -35
-51 -31 -87 2 -20 -27 -38 -42 -25 -16 13 -118 40 -165 43 -19 1 -36 6 -38 10
-3 4 -14 8 -24 8 -10 0 -20 4 -22 10 -6 17 -76 19 -83 2 -6 -17 34 -112 47
-112 5 0 6 -4 3 -10 -3 -5 -3 -10 2 -10 23 -1 46 -33 50 -70 4 -36 1 -41 -23
-50 -15 -6 -41 -8 -58 -4 -56 13 -70 11 -95 -14 -18 -18 -26 -21 -32 -11 -4 8
-3 16 2 20 7 4 5 9 -5 12 -8 3 -16 2 -18 -3 -2 -6 -16 -12 -33 -14 -52 -7 -67
-17 -61 -40 3 -12 -1 -34 -9 -49 -13 -25 -12 -28 11 -44 22 -14 24 -22 21 -62
-4 -48 -21 -90 -41 -104 -16 -11 -72 1 -117 26 -94 52 -96 52 -170 47 -75 -6
-89 0 -129 55 -23 31 -48 47 -61 40 -6 -5 -7 -10 -2 -14 5 -3 22 -32 37 -63
16 -32 31 -58 35 -58 17 0 26 -59 19 -115 -8 -61 -27 -136 -38 -145 -3 -3 -19
-22 -34 -42 -32 -42 -61 -48 -101 -22 -24 15 -25 15 -25 -4 0 -11 -7 -22 -15
-26 -8 -3 -15 -1 -15 5 0 6 -4 8 -8 5 -5 -3 -7 -18 -4 -34 5 -34 -24 -136 -44
-157 -9 -8 -25 -15 -37 -16 -33 0 -89 -8 -117 -14 -28 -7 -60 -11 -107 -13
-25 -2 -33 -6 -33 -21 0 -48 92 -62 176 -26 45 19 102 26 110 13 3 -5 11 -5
17 1 7 5 15 10 19 11 37 9 48 13 48 20 0 17 72 1 91 -19 31 -33 10 -61 -44
-62 -58 -1 -84 -6 -111 -24 -13 -9 -43 -17 -67 -19 -58 -5 -108 -27 -141 -62
-23 -25 -27 -40 -31 -110 -4 -72 -27 -160 -49 -189 -4 -5 -28 -36 -53 -67 -26
-32 -42 -58 -38 -58 4 0 3 -4 -4 -8 -11 -7 -16 -26 -14 -49 1 -14 51 -18 51
-5 0 9 7 11 77 12 33 1 51 -3 59 -14 17 -24 8 -66 -19 -92 -21 -19 -24 -28
-17 -62 8 -47 -3 -80 -37 -110 -39 -33 -38 -100 4 -212 3 -8 7 -21 9 -28 1 -8
9 -28 17 -45 44 -94 52 -141 28 -157 -5 -3 -13 -18 -16 -33 -8 -29 15 -67 41
-67 7 0 18 -17 24 -37 6 -21 14 -45 17 -53 4 -8 5 -18 5 -22 -1 -5 2 -8 6 -8
12 0 33 -46 44 -95 14 -63 25 -93 45 -116 12 -14 9 -22 -27 -60 -22 -24 -40
-49 -40 -56 0 -14 44 -28 59 -19 6 4 19 -2 30 -13 16 -16 19 -31 17 -68 -3
-54 10 -103 28 -103 9 0 37 34 42 50 17 72 77 106 91 53 12 -48 6 -129 -11
-164 -30 -60 -36 -107 -17 -130 l16 -20 27 20 c44 35 51 132 23 330 -7 48 -35
117 -54 131 -21 15 -52 74 -53 99 -1 36 8 50 40 63 69 27 108 15 117 -35 13
-72 26 -241 29 -397 2 -118 5 -141 26 -180 31 -61 41 -95 46 -165 8 -116 13
-154 23 -173 5 -10 12 -29 14 -43 2 -13 15 -62 30 -109 14 -47 28 -99 30 -117
3 -17 8 -37 12 -43 4 -6 9 -25 12 -41 2 -17 12 -39 21 -51 9 -11 25 -29 35
-40 9 -12 17 -24 17 -27 0 -3 15 -23 33 -43 17 -21 40 -47 49 -59 9 -12 45
-53 80 -92 77 -86 84 -94 128 -148 158 -196 348 -316 545 -344 116 -17 164
-21 246 -19 135 3 208 14 264 42 69 33 323 314 450 496 11 16 28 37 38 48 9
10 17 20 17 23 0 6 40 65 50 75 6 6 73 96 127 170 34 47 51 79 59 113 1 4 2 8
4 10 2 3 9 35 15 67 2 14 4 26 6 28 1 1 2 5 4 10 1 4 5 19 9 33 4 14 9 34 11
45 2 10 4 20 5 22 2 1 3 7 4 12 2 15 28 30 54 30 32 0 39 27 13 54 -11 12 -22
33 -23 47 -2 34 20 96 37 103 15 6 45 -18 45 -37 0 -17 42 -100 62 -121 10
-11 18 -23 18 -26 0 -4 6 -7 13 -8 6 -1 26 -4 44 -8 24 -5 33 -2 42 13 8 16 5
22 -19 36 -67 40 -101 117 -65 147 9 7 13 15 10 18 -3 3 2 14 12 24 9 10 17
34 18 54 4 55 -59 214 -85 214 -11 0 -30 48 -30 78 0 29 44 102 62 102 18 0
87 76 92 101 3 13 5 49 5 80 1 50 5 60 33 88 33 32 40 68 26 131 -7 33 7 52
60 79 23 12 42 26 42 32 0 5 -13 24 -29 42 -43 45 -51 124 -21 203 5 12 6 25
3 28 -4 3 1 6 10 6 18 0 58 -20 68 -33 3 -5 10 -9 15 -9 10 -1 27 -5 52 -15
22 -8 29 -10 43 -12 5 0 7 -5 4 -11 -3 -5 -2 -10 2 -10 5 0 10 -12 11 -27 2
-31 16 -43 43 -36 30 8 35 56 14 123 -5 16 -30 31 -55 35 -3 0 -9 3 -15 6 -5
4 -18 5 -28 4 -9 -2 -22 5 -27 15 -13 24 6 38 49 35 19 -1 50 3 68 8 49 15 52
44 11 114 -36 63 -49 91 -54 113 -7 36 -28 59 -63 66 -20 4 -39 8 -43 9 -5 2
-16 3 -25 4 -25 2 -64 62 -58 89 2 13 16 48 30 78 14 30 24 58 22 62 -3 4 -1
16 3 27 8 21 -13 73 -34 87 -6 5 -7 8 -1 8 7 0 7 3 0 8 -6 4 -28 31 -50 60
-33 43 -40 61 -40 98 0 24 3 44 6 44 4 0 2 18 -3 40 -6 22 -14 40 -17 40 -7 0
-35 -26 -59 -55 -20 -23 -43 -18 -83 18 -19 17 -46 37 -60 44 -13 6 -45 21
-71 33 -30 14 -55 34 -70 58 -59 96 -1 126 107 54 50 -34 65 -39 99 -35 51 5
78 5 139 -1 34 -3 52 0 63 11 18 18 10 52 -17 71 -11 7 -19 20 -19 28 0 8 -7
14 -15 14 -8 0 -16 5 -16 10 -1 6 -2 16 -3 23 -3 21 16 26 41 10 22 -14 25
-14 43 7 10 12 27 20 37 18 10 -3 31 2 46 9 l28 14 -25 26 c-15 14 -25 31 -24
37 3 16 -13 58 -28 73 -7 7 -30 13 -52 13 -53 0 -93 16 -115 46 -23 31 -16 51
20 64 111 40 122 91 30 133 -59 28 -105 38 -192 41 -94 5 -132 -3 -165 -34
-16 -15 -32 -25 -35 -22 -3 3 -5 -2 -5 -10 0 -17 -65 -85 -76 -80 -4 2 -10 -1
-14 -7 -3 -6 -20 -15 -37 -20 -27 -8 -32 -6 -43 15 -18 33 1 75 45 98 19 11
35 23 35 28 0 4 8 8 18 8 25 1 71 45 87 85 20 47 19 52 -16 71 -30 15 -34 15
-76 -6 -24 -12 -64 -23 -88 -23 -25 -1 -45 -5 -45 -9 0 -5 -3 -7 -7 -7 -29 5
-58 -6 -111 -41 -33 -22 -79 -44 -103 -49 -24 -5 -55 -12 -69 -16 -95 -24
-129 -24 -146 0 -22 30 -22 97 0 194 3 14 21 47 39 75 37 56 49 91 52 151 2
22 4 40 5 40 1 0 3 9 5 19 2 10 8 22 13 25 5 3 12 16 16 29 6 18 3 22 -16 23
-65 3 -118 -13 -118 -36 0 -7 -7 -18 -15 -25 -8 -7 -12 -16 -9 -21 5 -9 -59
-77 -92 -95 -11 -6 -33 -14 -50 -18 -28 -6 -32 -4 -42 21 -6 15 -10 59 -9 96
3 78 -7 90 -59 76 -30 -8 -84 -59 -84 -79 0 -10 -52 -122 -60 -130 -3 -3 -14
-25 -25 -50 -11 -25 -24 -48 -30 -53 -16 -11 -54 1 -82 27 -23 22 -24 27 -15
71 5 26 8 59 6 73 -7 45 -12 77 -15 80 -1 1 -2 5 -3 10 -6 26 -31 82 -37 82
-4 0 -10 -8 -15 -17z"/>
</g>
</svg>
